<svg xmlns="http://www.w3.org/2000/svg" width="35" height="35" viewBox="0 0 35 35" fill="none">
	<path
		d="M25.015 9.985C27.6988 7.30125 32.2155 7.29654 33.6679 10.803V10.803C34.5473 12.9262 35 15.2019 35 17.5C35 19.7981 34.5473 22.0738 33.6679 24.197V24.197C32.2154 27.7035 27.6987 27.6988 25.015 25.015L23.6872 23.6872C20.2701 20.2701 20.2701 14.7299 23.6872 11.3128L25.015 9.985Z"
		fill="#00a189" />
	<path
		d="M17.5 25C17.5 30.5228 12.6807 35.2066 8.03521 32.2197C6.99233 31.5492 6.01595 30.7647 5.12563 29.8744C1.84375 26.5925 9.77458e-07 22.1413 0 17.5C-9.77457e-07 12.8587 1.84374 8.40752 5.12563 5.12564C6.01595 4.23531 6.99233 3.45083 8.03521 2.78029C12.6807 -0.206618 17.5 4.47715 17.5 10L17.5 17.5L17.5 25Z"
		fill="#006e7b" />
</svg>